<svg xmlns="http://www.w3.org/2000/svg" width="383" height="284" viewBox="0 0 383 284">
    <g fill="none" fill-rule="evenodd">
        <g>
            <g>
                <path fill="#F5AD00" fill-rule="nonzero" d="M193.03 123.904c15.725 0 26.076-6.294 26.076-18.881v-.197c0-9.244-4.977-13.866-13.038-16.915 4.976-2.753 9.156-7.08 9.156-14.85v-.196c0-4.72-1.592-8.555-4.777-11.702-3.981-3.934-10.251-6.097-18.213-6.097h-24.682c-4.28 0-7.664 3.343-7.664 7.572v53.694c0 4.228 3.384 7.572 7.664 7.572h25.478zm-4.212-41.01h-14.125V68.247h15.12c6.466 0 10.047 2.573 10.047 7.126v.198c0 5.146-4.277 7.323-11.042 7.323zm4.43 27.828h-18.555V96.076h18.049c8.01 0 11.56 2.758 11.56 7.228v.19c0 4.946-4.158 7.228-11.053 7.228zm48.064 13.182c4.134 0 7.402-3.357 7.402-7.603V61.204c0-4.246-3.268-7.603-7.402-7.603-4.133 0-7.402 3.357-7.402 7.603V116.3c0 4.246 3.269 7.603 7.402 7.603zm58.962 1.465c10.488 0 18.778-3.47 24.471-6.94 3.696-2.18 5.393-5.253 5.393-9.714V91.864c0-4.263-3.395-7.633-7.69-7.633h-17.58c-3.695 0-6.691 2.974-6.691 6.642 0 3.667 2.996 6.542 6.692 6.542h10.387v9.913c-3.895 2.775-8.889 4.163-14.482 4.163-12.385 0-21.175-9.318-21.175-22.006v-.198c0-11.797 8.89-21.61 20.076-21.61 6.592 0 11.087 1.784 15.282 4.758 1.098.793 2.497 1.586 4.694 1.586 4.195 0 7.591-3.37 7.591-7.534 0-2.973-1.698-5.055-3.196-6.145-6.293-4.362-13.284-6.741-23.871-6.741-21.175 0-36.656 16.158-36.656 35.884v.198c0 20.52 14.982 35.686 36.755 35.686z" transform="translate(1 69.825)"/>
                <path fill="#624897" fill-rule="nonzero" d="M164.003 41.884c2.299 0 4.116-1.834 4.116-4.154v-7.497h6.253c8.39 0 15.125-4.53 15.125-13.269v-.108c0-7.713-5.398-13.053-14.323-13.053h-11.17c-2.299 0-4.116 1.834-4.116 4.153V37.73c0 2.32 1.817 4.154 4.115 4.154zm11.43-19.04h-6.662V11.125h6.498c4.205 0 6.826 2.026 6.826 5.804v.11c0 3.285-2.458 5.803-6.662 5.803zm44.215 19.04c2.19 0 3.899-1.753 3.899-3.93 0-.532-.16-1.063-.427-1.647L210.088 7.043c-.907-2.018-2.51-3.24-4.753-3.24h-.48c-2.244 0-3.9 1.222-4.807 3.24l-13.031 29.264c-.267.584-.481 1.169-.481 1.753 0 2.124 1.656 3.824 3.792 3.824 1.709 0 3.098-.956 3.792-2.55l2.617-6.107h16.449l2.51 5.842c.748 1.7 2.03 2.815 3.952 2.815zm-9.425-16.111H199.86l5.182-11.718 5.181 11.718zm46.148 16.11c2.424 0 4.187-1.764 4.187-4.064 0-1.177-.606-2.246-1.267-3.049l-10.359-12.355 9.808-11.66c.826-1.015 1.267-1.978 1.267-3.155 0-2.353-1.984-3.797-3.857-3.797-1.873 0-2.975.802-4.132 2.246l-8.375 10.697-8.43-10.91c-1.047-1.338-2.093-2.033-3.912-2.033-2.424 0-4.187 1.765-4.187 4.065 0 1.176.606 2.246 1.267 3.048l9.807 11.606-10.413 12.409c-.826 1.016-1.267 1.979-1.267 3.155 0 2.354 1.983 3.798 3.857 3.798 1.873 0 2.975-.803 4.132-2.247l8.926-11.285 9.036 11.5c1.046 1.336 2.093 2.032 3.912 2.032zm35.927 0c2.088 0 3.79-1.569 3.79-3.556 0-1.988-1.702-3.61-3.79-3.61h-17.414v-7.689h14.667c2.088 0 3.79-1.57 3.79-3.557 0-1.988-1.702-3.61-3.79-3.61h-14.667v-7.427h17.14c2.087 0 3.79-1.57 3.79-3.557 0-1.988-1.703-3.61-3.79-3.61h-21.315c-2.362 0-4.23 1.78-4.23 4.028v28.561c0 2.25 1.868 4.028 4.23 4.028h21.59zm35.453 0c2.155 0 3.868-1.671 3.868-3.775s-1.713-3.776-3.868-3.776H312V7.956c0-2.32-1.879-4.153-4.255-4.153s-4.255 1.834-4.255 4.153V37.73c0 2.32 1.879 4.154 4.255 4.154h20.005zM142.812 0h-87.8c-5.025 0-9.1 4.032-9.1 9.003v108.801c0 4.974 4.074 9.007 9.1 9.007h87.8c5.026 0 9.102-4.033 9.102-9.007V9.004c0-4.972-4.077-9.004-9.102-9.004zm-.051 9.055v108.702H55.063V9.055h87.698z" transform="translate(1 69.825)"/>
                <path fill="#F5AD00" d="M98.913 58.405c-2.334 0-4.226-1.87-4.226-4.18V.262h8.45v53.963c0 2.31-1.891 4.18-4.224 4.18" transform="translate(1 69.825)"/>
                <path stroke="#624897" stroke-linecap="round" stroke-width="5.706" d="M21.84 137.954L21.84 38.107" transform="translate(1 69.825)"/>
                <path fill="#F5AD00" fill-rule="nonzero" d="M322.03 130.989c3.888 0 7.04 3.118 7.04 6.965 0 3.74-2.98 6.791-6.718 6.958l-.322.007H7.04c-3.888 0-7.04-3.118-7.04-6.965 0-3.74 2.98-6.791 6.718-6.958l.322-.007h314.99z" transform="translate(1 69.825)"/>
                <path fill="#EF3E55" fill-rule="nonzero" d="M21.84.348c2.25 0 4.088 1.74 4.217 3.933l.007.245V19.8c0 2.308-1.891 4.178-4.224 4.178-2.25 0-4.088-1.74-4.216-3.933l-.008-.245V4.526c0-2.307 1.891-4.178 4.224-4.178z" transform="translate(1 69.825)"/>
                <path fill="#F5AD00" fill-rule="nonzero" d="M21.84.348C10.135.348.645 9.737.645 21.318c0 11.58 9.49 20.968 21.195 20.968 11.706 0 21.195-9.388 21.195-20.969 0-11.58-9.489-20.97-21.195-20.97zm0 8.357c7.04 0 12.748 5.647 12.748 12.612S28.881 33.93 21.84 33.93c-7.04 0-12.748-5.647-12.748-12.612S14.8 8.705 21.84 8.705z" transform="translate(1 69.825)"/>
            </g>
            <path stroke="#EF3E55" stroke-dasharray="4 4" stroke-width="3" d="M380 1.825L380 282.825"/>
        </g>
    </g>
</svg>
