<svg xmlns="http://www.w3.org/2000/svg" xmlns:xlink="http://www.w3.org/1999/xlink" width="472" height="187" viewBox="0 0 472 187">
    <defs>
        <path id="pygz37dm2a" d="M0 274L513 274 513 0 0 0z"/>
    </defs>
    <g fill="none" fill-rule="evenodd">
        <g>
            <g transform="translate(-485 -276) translate(464 215)">
                <path fill="#BABCBE" fill-rule="nonzero" d="M68.208 232.238c.74-.74 1.915-.779 2.701-.117l.127.117 11.73 11.728c.78.781.78 2.047 0 2.828-.74.74-1.916.78-2.702.117l-.127-.116-11.73-11.728c-.78-.781-.78-2.048 0-2.829z"/>
                <path fill="#BABCBE" fill-rule="nonzero" d="M81.908 226.067c1.055 0 1.918.816 1.995 1.851l.005.15v17.871c0 1.105-.895 2-2 2-1.054 0-1.918-.815-1.994-1.85l-.006-.15v-17.872c0-1.104.896-2 2-2z"/>
                <path fill="#BABCBE" fill-rule="nonzero" d="M92.781 233.355c.781-.781 2.047-.781 2.829 0 .74.74.778 1.915.116 2.701l-.116.127-11.17 11.17c-.782.781-2.048.781-2.829 0-.74-.74-.779-1.915-.117-2.701l.117-.127 11.17-11.17zM36.932 236.3c.74-.74 1.916-.78 2.702-.117l.127.117 5.33 5.33c.782.782.782 2.048 0 2.83-.739.74-1.915.778-2.7.116l-.128-.117-5.33-5.33c-.782-.782-.782-2.048 0-2.83z"/>
                <path fill="#BABCBE" fill-rule="nonzero" d="M43.932 233.175c1.054 0 1.918.816 1.994 1.851l.006.15v8.123c0 1.105-.896 2-2 2-1.055 0-1.919-.816-1.995-1.85l-.005-.15v-8.124c0-1.104.895-2 2-2z"/>
                <path fill="#BABCBE" fill-rule="nonzero" d="M48.101 236.807c.781-.78 2.048-.78 2.829 0 .74.74.779 1.916.117 2.702l-.117.127-5.077 5.077c-.781.781-2.048.781-2.829 0-.74-.74-.778-1.916-.116-2.701l.116-.128 5.077-5.077zM56.776 163.516c11.014 0 20.231 7.883 22.234 18.386l.091.512.088-.028c1.956-.602 3.99-.939 6.063-.99l.566-.008c12.016 0 21.849 9.352 22.616 21.174l.015.268.578-.075c.62-.071 1.24-.117 1.86-.135l.621-.009c12.518 0 22.664 10.146 22.664 22.664 0 12.037-9.404 21.905-21.318 22.604l-.391.019-.1.02-.146.016-.15.005c-1.054 0-1.918-.816-1.994-1.85l-.006-.15v-1.975l1.947-.052c10.096-.271 18.158-8.525 18.158-18.637 0-10.308-8.355-18.664-18.664-18.664-1.35 0-2.708.16-4.08.472l-.514.123-2.644.672.207-3.585c.004-.089.005-.164.005-.241 0-10.307-8.356-18.664-18.664-18.664-2.48 0-4.895.494-7.16 1.44l-.45.194-2.677 1.2-.138-2.93c-.468-9.932-8.65-17.776-18.617-17.776-8.852 0-16.419 6.214-18.241 14.743l-.071.347-.434 2.237-2.162-.72c-1.914-.639-3.892-.969-5.9-.969-1.104 0-2-.895-2-2s.896-2 2-2c1.693 0 3.365.192 5.003.567l.079.019.006-.019c2.773-9.36 11.353-16.04 21.35-16.202l.37-.003z"/>
                <path fill="#BABCBE" fill-rule="nonzero" d="M464.376 243.939c1.105 0 2 .895 2 2 0 1.054-.816 1.918-1.85 1.995l-.15.005H23.5c-1.105 0-2-.895-2-2 0-1.054.816-1.918 1.85-1.995l.15-.005h440.876z"/>
                <path fill="#F5AE43" fill-rule="nonzero" d="M133.277 131.876c1.105 0 2 .896 2 2 0 1.055-.816 1.919-1.85 1.995l-.15.005h-16.173v29.316h17.687c1.055 0 1.918.816 1.995 1.851l.005.15c0 1.054-.816 1.918-1.85 1.994l-.15.005h-19.687c-1.054 0-1.918-.815-1.994-1.85l-.006-.15v-33.316c0-1.054.816-1.918 1.851-1.994l.15-.006h18.172zM168.738 131.876c1.054 0 1.918.816 1.995 1.851l.005.15v33.315c0 1.055-.816 1.919-1.85 1.995l-.15.005h-16.34c-1.104 0-2-.895-2-2 0-1.054.816-1.918 1.85-1.994l.15-.006h14.34v-29.316H152.08c-1.054 0-1.918-.815-1.994-1.85l-.006-.15c0-1.054.816-1.918 1.85-1.994l.15-.006h16.658z"/>
                <path fill="#5A589B" fill-rule="nonzero" d="M211.561 72.016c5.672 0 10.022 4.987 9.3 10.572l-.037.266-4.14 26.208c-.537 3.407-2.544 6.4-5.478 8.192l-.297.176-20.182 11.533c-2.237 1.278-3.647 3.619-3.742 6.18l-.005.275v27.968c0 .806.132 1.606.388 2.37l.118.325 13.062 33.588c.56 1.439.871 2.96.923 4.503l.008.463v34.644c0 4.696-3.737 8.519-8.399 8.656l-.26.004h-5.323c-4.695 0-8.518-3.737-8.655-8.4l-.004-.26v-28.837c0-1.891-.649-3.722-1.833-5.19l-.093-.111-6.503-4.903v2.796c0 3.882-1.028 7.692-3.022 11.114l-.254.426-20.696 30.482c-1.095 1.79-3.042 2.883-5.14 2.883-1.7 0-3.314-.716-4.454-1.966l-.176-.202-9.15-10.98c-.498-.598-.6-1.427-.276-2.125l.077-.147 16.306-28.54V177.87l-.123-.028c-2.704-.641-5.073-2.471-6.326-5.121l-.114-.251-10.39-23.747c-1.165-2.668-1.06-5.713.277-8.287l.153-.284 13.97-24.836c2.037-3.621 5.822-5.897 9.959-6.011l.327-.005h29.405c.935 0 1.853-.239 2.666-.692l.241-.142 12.121-7.575c1.156-.722 2-1.848 2.37-3.155l.068-.264 4.198-18.188c.98-4.254 4.77-7.268 9.135-7.268zm0 4c-2.424 0-4.539 1.622-5.18 3.94l-.057.227-4.198 18.19c-.542 2.345-1.953 4.393-3.942 5.732l-.275.178-12.119 7.575c-1.406.88-3.018 1.374-4.673 1.436l-.355.006h-29.405c-2.725 0-5.244 1.42-6.658 3.735l-.143.243-13.968 24.834c-.82 1.458-.946 3.198-.356 4.751l.105.258 10.388 23.745c1.05 2.398 3.667 3.685 6.191 3.081l.225-.06c3.107-.887 4.723-4.28 3.5-7.236l-.089-.2-7.028-15.227c-1.357-2.94-1.142-6.356.6-9.159l.179-.278 7.992-10.952c.65-.892 1.902-1.087 2.794-.436.848.618 1.067 1.778.528 2.658l-.091.136-7.944 10.883c-1.037 1.555-1.23 3.517-.527 5.238l.101.233 7.028 15.227c2.374 5.146-.32 11.182-5.683 12.88l-.256.08c-.177.05-.355.095-.533.135l-.088.017v26.626c0 .29-.063.576-.184.838l-.08.154-15.881 27.793 8.26 9.913c.347.416.843.674 1.378.721l.18.008c.65 0 1.258-.313 1.678-.897l.1-.152 20.697-30.483c1.646-2.693 2.553-5.771 2.632-8.922l.005-.45v-6.809c0-1.599 1.77-2.53 3.079-1.684l.125.087 9.887 7.453c.11.083.21.177.301.28 1.876 2.144 2.946 4.87 3.032 7.71l.005.37v28.837c0 2.502 1.972 4.544 4.446 4.655l.213.005h5.323c2.502 0 4.543-1.972 4.654-4.446l.005-.214v-34.644c0-1.07-.176-2.131-.521-3.14l-.138-.376-13.062-33.588c-.463-1.19-.723-2.448-.77-3.72l-.008-.425v-27.968c0-3.992 2.082-7.687 5.476-9.76l.286-.168 20.183-11.533c1.956-1.119 3.324-3.03 3.758-5.23l.05-.289 4.14-26.207c.514-3.264-2.008-6.215-5.312-6.215z"/>
                <path fill="#5A589B" fill-rule="nonzero" d="M168.41 181.798c1.054 0 1.917.816 1.994 1.851l.005.15v20.712c0 1.105-.895 2-2 2-1.054 0-1.918-.816-1.994-1.85l-.006-.15v-20.713c0-1.104.896-2 2-2zM168.41 63.73c-10.257 0-18.571 8.315-18.571 18.571 0 10.257 8.314 18.571 18.57 18.571 10.257 0 18.572-8.314 18.572-18.57 0-10.257-8.315-18.572-18.571-18.572zm0 4c8.047 0 14.57 6.524 14.57 14.571 0 8.048-6.523 14.571-14.57 14.571-8.048 0-14.571-6.523-14.571-14.57 0-8.048 6.523-14.572 14.57-14.572zM208.519 243.939c1.104 0 2 .895 2 2 0 1.054-.816 1.918-1.85 1.995l-.15.005h-93.891c-1.105 0-2-.895-2-2 0-1.054.816-1.918 1.85-1.995l.15-.005h93.89zM381.302 243.939c1.105 0 2 .895 2 2 0 1.054-.816 1.918-1.85 1.995l-.15.005h-68.261c-1.105 0-2-.895-2-2 0-1.054.816-1.918 1.85-1.995l.15-.005h68.261z"/>
                <path fill="#F5AE43" d="M385.522 82.623H367.64c-2.918 0-5.284 2.365-5.284 5.283v2.846c0 2.918-2.365 5.284-5.283 5.284h-5.212c-2.918 0-5.284 2.365-5.284 5.283v35.004c.778 1.756 2.527 2.985 4.571 2.988l59.26.117c2.774.006 5.026-2.242 5.026-5.015v-21.88c0-16.519-13.39-29.91-29.91-29.91"/>
                <path fill="#5A589B" fill-rule="nonzero" d="M339.265 76.61c1.104 0 2 .896 2 2 0 1.055-.816 1.919-1.851 1.995l-.15.005h-1.74c-1.104 0-2-.895-2-2 0-1.054.816-1.918 1.851-1.994l.15-.006h1.74zM386.526 76.61c14.705 0 26.653 11.802 26.89 26.45l.004.445v31.92c0 1.057-.818 1.921-1.854 1.995l-.15.006-62.312-.123c-1.104-.002-1.998-.9-1.996-2.004.002-1.055.82-1.917 1.855-1.991l.15-.005 60.307.118v-29.916c0-12.518-10.046-22.69-22.515-22.891l-.379-.003H365.34c-1.104 0-2-.896-2-2 0-1.055.816-1.918 1.851-1.995l.15-.005h21.185z"/>
                <path fill="#5A589B" fill-rule="nonzero" d="M357.249 72.598c1.054 0 1.918.816 1.995 1.85l.005.15v48.15c0 1.105-.895 2-2 2-1.054 0-1.918-.815-1.995-1.85l-.005-.15v-48.15c0-1.105.895-2 2-2z"/>
                <path fill="#5A589B" fill-rule="nonzero" d="M357.249 72.598h-6.657c-2.968 0-5.374 2.405-5.374 5.373v9.303c0 2.968 2.406 5.374 5.374 5.374h6.657c1.104 0 2-.896 2-2v-16.05c0-1.105-.896-2-2-2zm-2.001 3.999v12.05h-4.656c-.76 0-1.374-.614-1.374-1.373V77.97l.006-.132c.067-.696.654-1.241 1.368-1.241l4.656-.001zM318.338 77.633c14.05 0 25.466 11.276 25.693 25.273l.004.425v31.928c0 1.054-.816 1.918-1.851 1.994l-.15.006h-78.781c-1.105 0-2-.896-2-2 0-1.055.816-1.919 1.85-1.995l.15-.005 76.781-.001v-29.927c0-11.864-9.52-21.504-21.337-21.695l-.36-.003h-11.502c-11.864 0-21.503 9.52-21.694 21.339l-.003.359v21.396c0 1.104-.896 2-2 2-1.055 0-1.918-.816-1.995-1.851l-.005-.15v-21.395c0-14.051 11.275-25.468 25.272-25.695l.425-.003h11.503z"/>
                <path fill="#5A589B" fill-rule="nonzero" d="M341.2 132.788c1.054 0 1.917.815 1.994 1.85l.005.15V242.85c0 1.104-.895 2-2 2-1.054 0-1.918-.816-1.994-1.851l-.006-.15V134.789c0-1.105.896-2 2-2zM357.249 142.278c1.054 0 1.918.816 1.995 1.851l.005.15v98.93c0 1.104-.895 2-2 2-1.054 0-1.918-.817-1.995-1.851l-.005-.15v-98.93c0-1.104.895-2 2-2z"/>
                <path fill="#F5AE43" d="M332.137 102.453l-5.696-5.697c-.027-.026-.07-.026-.094 0l-15.37 15.37-8.787-8.787c-.05-.05-.13-.05-.178 0l-5.566 5.566c-.05.048-.05.128 0 .177l13.905 13.905c.346.346.906.346 1.252 0l20.534-20.534z"/>
                <path fill="#F5AE43" fill-rule="nonzero" d="M442.738 89.67c1.104 0 2 .895 2 2 0 1.054-.816 1.918-1.851 1.994l-.15.005H427.72c-1.105 0-2-.895-2-2 0-1.054.816-1.918 1.85-1.994l.15-.006h15.018zM415.433 61c1.054 0 1.918.816 1.994 1.851l.006.15v13.651c0 1.105-.896 2-2 2-1.055 0-1.919-.816-1.995-1.85l-.005-.15V63c0-1.104.895-2 2-2zM433.132 69.777c.781-.781 2.047-.781 2.829 0 .74.74.778 1.915.116 2.701l-.116.127-9.557 9.557c-.782.781-2.048.781-2.829 0-.74-.74-.779-1.915-.117-2.701l.117-.127 9.557-9.557z"/>
                <mask id="sfwprtyn1b" fill="#fff">
                    <use xlink:href="#pygz37dm2a"/>
                </mask>
                <path fill="#BABCBE" fill-rule="nonzero" d="M492.335 197.11h-68v50.829h68V197.11zm-4 4v42.829h-60V201.11h60z" mask="url(#sfwprtyn1b)"/>
                <path fill="#BABCBE" fill-rule="nonzero" d="M472.042 197.109h-21.171v27.415h21.171v-27.415zm-4 4v19.415h-13.171v-19.415h13.171z" mask="url(#sfwprtyn1b)"/>
                <path fill="#BABCBE" fill-rule="nonzero" d="M492.335 156.524h-57.333v43.024h57.333v-43.024zm-4 4v35.024h-49.334v-35.024h49.334z" mask="url(#sfwprtyn1b)"/>
                <path fill="#BABCBE" fill-rule="nonzero" d="M475.424 156.525h-18.309v23.512h18.309v-23.512zm-4 3.999v15.512h-10.309v-15.512h10.309z" mask="url(#sfwprtyn1b)"/>
            </g>
        </g>
    </g>
</svg>
