<?xml version="1.0" encoding="utf-8"?>
<!-- Generator: Adobe Illustrator 23.0.5, SVG Export Plug-In . SVG Version: 6.00 Build 0)  -->
<svg version="1.1" id="Layer_1" xmlns="http://www.w3.org/2000/svg" xmlns:xlink="http://www.w3.org/1999/xlink" x="0px" y="0px"
	 viewBox="0 0 104 86" style="enable-background:new 0 0 104 86;" xml:space="preserve">
<style type="text/css">
	.st0{fill:#FBB017;}
	.st1{fill:none;stroke:#5F53A3;stroke-width:2.6396;stroke-linecap:round;stroke-linejoin:round;stroke-miterlimit:10;}
	.st2{fill:none;stroke:#FBB017;stroke-width:2.6713;stroke-linecap:round;stroke-linejoin:round;stroke-miterlimit:10;}
</style>
<g>
	<polygon class="st0" points="96.7,63.1 72.1,70.6 64.8,45.4 89.3,37.9 	"/>
	<line class="st1" x1="77.8" y1="50.8" x2="73.8" y2="37.7"/>
	<line class="st1" x1="68" y1="78.3" x2="92.5" y2="70.9"/>
	<polyline class="st1" points="48.3,42.3 52.7,42.3 62.5,75.6 	"/>
	<path class="st1" d="M68.3,79.9c0,2.5-2,4.5-4.5,4.5s-4.5-2-4.5-4.5s2-4.5,4.5-4.5C66.3,75.5,68.3,77.5,68.3,79.9z"/>
	<polygon class="st1" points="97.2,62.3 67.9,70.9 59.2,42 88.4,33.4 	"/>
	<path class="st1" d="M35.3,12.9c1.2,1.2,2,2.9,2,4.8c0,3.7-3.1,6.8-6.8,6.8c-3.2,0-5.9-2.2-6.6-5.1"/>
	<path class="st1" d="M34.8,84.4c-2.3,0-4-1.3-4-1.3l-0.3-0.2V66.6l-7.3-10.4L23,66.3l-8.8,17.9c0,0-1,0.1-1.2,0.1
		c-4,0-5.6-2.8-6-4.4l-0.1-0.3l7.9-15V50.7L23,29h10l0.2,0.4C39.2,41.6,46.5,42,46.6,42h0.6l0.1,0.6c0.4,1.6,0.2,4.9-3.2,6.2
		c-6-0.5-10.8-5.4-12.7-7.7l-2.7,8.6l10.1,14L39,82.9l-0.3,0.2C37.5,84,36.2,84.4,34.8,84.4z"/>
	<line class="st2" x1="23.9" y1="19.4" x2="40.2" y2="10.9"/>
	<path class="st2" d="M23.9,19.4c-0.1-0.5-0.2-1.1-0.2-1.7c0-3.7,3.1-6.8,6.8-6.8c1.9,0,3.6,0.8,4.8,2"/>
</g>
<line class="st1" x1="59.2" y1="84.8" x2="102.6" y2="84.8"/>
<line class="st1" x1="1.4" y1="84.8" x2="52" y2="84.8"/>
</svg>
