<?xml version="1.0" encoding="utf-8"?>
<!-- Generator: Adobe Illustrator 23.0.5, SVG Export Plug-In . SVG Version: 6.00 Build 0)  -->
<svg version="1.1" id="Layer_1" xmlns="http://www.w3.org/2000/svg" xmlns:xlink="http://www.w3.org/1999/xlink" x="0px" y="0px"
	 viewBox="0 0 104 86" style="enable-background:new 0 0 104 86;" xml:space="preserve">
<style type="text/css">
	.st0{fill:none;stroke:#5F53A3;stroke-width:2.6396;stroke-linecap:round;stroke-linejoin:round;stroke-miterlimit:10;}
	.st1{fill:none;stroke:#FFB71B;stroke-width:2.6741;stroke-linecap:round;stroke-linejoin:round;stroke-miterlimit:10;}
	.st2{fill:none;stroke:#6051A2;stroke-width:2.3642;stroke-linecap:round;stroke-linejoin:round;stroke-miterlimit:10;}
	.st3{fill:#FFFFFF;stroke:#6051A2;stroke-width:2.3642;stroke-linecap:round;stroke-linejoin:round;stroke-miterlimit:10;}
	.st4{fill:#FBB017;}
	.st5{fill:none;stroke:#FBB017;stroke-width:2.6713;stroke-linecap:round;stroke-linejoin:round;stroke-miterlimit:10;}
	.st6{fill:none;stroke:#6051A2;stroke-width:2.571;stroke-linecap:round;stroke-linejoin:round;stroke-miterlimit:10;}
	.st7{fill:none;stroke:#F5AC1E;stroke-width:2.571;stroke-linecap:round;stroke-linejoin:round;stroke-miterlimit:10;}
</style>
<line class="st0" x1="63.1" y1="84.8" x2="102.6" y2="84.8"/>
<line class="st0" x1="1.4" y1="84.8" x2="56.2" y2="84.8"/>
<g>
	<g>
		<polyline class="st1" points="63.2,45.4 63.2,33.7 42.8,33.7 42.8,49.8 57.9,49.8 		"/>
		<g>
			<path class="st2" d="M79.6,23.3c0,3.4-2.8,6.2-6.3,6.2c-3.4,0-6.3-2.8-6.3-6.2c0-0.3,0-0.5,0.1-0.8h12.4
				C79.6,22.8,79.6,23,79.6,23.3z"/>
			<path class="st3" d="M57.9,46.2c-0.4,1.4-0.2,4.5,2.9,5.8c5.6-0.5,9.9-5,11.7-7.1l2.4,7.9l-9.3,12.9l-0.1,17.6l0.3,0.3
				c1.1,0.8,2.3,1.2,3.5,1.2c2.1,0,3.6-1.2,3.7-1.2l0.3-0.2V68.2l6.7-9.6l0.2,9.3l8.1,16.5c0,0,0.9,0.1,1.1,0.1
				c3.7,0,5.1-2.6,5.6-4.1l0.1-0.3l-7.2-13.8V53.7l-7.6-20H71l-0.2,0.5c-5.5,11.2-12.2,11.5-12.3,11.5C58.1,45.7,58,45.9,57.9,46.2z
				"/>
			<g>
				<polyline class="st1" points="79.6,22.5 79.6,22.5 67.2,22.5 63.6,22.5 				"/>
				<path class="st1" d="M79.6,22.5H67.2c0.4-3.1,3.1-5.4,6.2-5.4S79.2,19.4,79.6,22.5z"/>
			</g>
		</g>
	</g>
	<g>
		<g>
			<path class="st2" d="M37.1,23.3c0,3.4-2.8,6.2-6.3,6.2s-6.3-2.8-6.3-6.2s2.8-6.2,6.3-6.2C34.2,17.1,37.1,19.9,37.1,23.3z"/>
			<path class="st3" d="M34.8,84.6c-2.1,0-3.6-1.2-3.7-1.2l-0.3-0.2V68.2l-6.7-9.6L23.9,68l-8.1,16.4c0,0-0.9,0.1-1.2,0.1
				c-3.7,0-5.1-2.6-5.6-4.1L9,80.2l7.2-13.8V53.7l7.7-20h9.2l0.2,0.5c5.5,11.2,12.3,11.5,12.4,11.5h0.5l0.2,0.5
				c0.4,1.4,0.2,4.5-2.9,5.8c-5.6-0.5-9.9-5-11.6-7.1l-2.5,7.9l9.3,12.9l0.1,17.6l-0.3,0.2C37.2,84.3,36,84.6,34.8,84.6z"/>
		</g>
	</g>
</g>
</svg>
