<?xml version="1.0" encoding="utf-8"?>
<!-- Generator: Adobe Illustrator 23.0.5, SVG Export Plug-In . SVG Version: 6.00 Build 0)  -->
<svg version="1.1" id="Layer_1" xmlns="http://www.w3.org/2000/svg" xmlns:xlink="http://www.w3.org/1999/xlink" x="0px" y="0px"
	 viewBox="0 0 78.4 82.3" style="enable-background:new 0 0 78.4 82.3;" xml:space="preserve">
<style type="text/css">
	.st0{fill:none;stroke:#6051A2;stroke-width:2.3642;stroke-linecap:round;stroke-linejoin:round;stroke-miterlimit:10;}
	.st1{fill:#FBB017;}
</style>
<g id="pax_3" transform="translate(-46.000000, -23.000000)">
	<g id="no3" transform="translate(48.000000, 25.000000)">
		<g transform="translate(20.567376, 19.744681)">
			<path class="st0" d="M9,20.1l0.4,4.7l-2.9,14l-0.1,19l0.3,0.2c1.2,0.9,2.5,1.3,3.8,1.3c2.3,0,3.9-1.3,4-1.3l0.3-0.2L15,40.2
				l2.1-9.9h0l2.1,9.9l0.1,17.6l0.3,0.2c0.1,0.1,1.7,1.3,4,1.3c1.4,0,2.7-0.4,3.8-1.3l0.3-0.2l-0.1-19l-2.9-14l1-11.9"/>
			<g transform="translate(4.936170, 0.000000)">
				<path class="st0" d="M18.5-9.5c-1-3.2-4.3-5.2-7.7-4.5c-3.4,0.6-5.7,3.7-5.5,7L18.5-9.5z"/>
				<path class="st0" d="M5.3-7c0,0.3,0,0.6,0.1,0.9c0.7,3.7,4.3,6.1,8,5.4c3.7-0.7,6.1-4.2,5.4-7.9c-0.1-0.3-0.2-0.6-0.2-0.8L5.3-7
					z"/>
				<line class="st0" x1="5.3" y1="-7" x2="22.8" y2="-10.3"/>
			</g>
		</g>
		<path class="st1" d="M24,36c-0.5,0.6-0.8,1.1-0.8,1.4c-0.1,1,1.1,6.4,0.9,8.2c-0.1,1.8-5,3.4-5.7,0.8c-0.6-2-1.3-7.3-1.5-10.3
			h-3.8v11.7h21V36H24z"/>
		<path class="st0" d="M46.2,32.7c3.7,3.8,7.8,4.2,8.8,4c1.3-0.3,8.7-7.6,9.8-8.8c1.8-2.1-0.6-6.3-2.3-5.7c-1.6,0.6-7.4,6.4-8.3,6.4
			c-1,0-6.3-2.9-8.9-5.7H29.5"/>
		<line id="XMLID_9_" class="st0" x1="44.1" y1="79.2" x2="10.7" y2="79.2"/>
		<line id="XMLID_10_" class="st0" x1="75.2" y1="79.2" x2="52.8" y2="79.2"/>
		<path class="st0" d="M29.5,23c-5.8,2.5-12,9.7-12.4,11c-0.5,1.3,0.7,9.7,1.4,12.3c0.7,2.6,5.6,1,5.7-0.8c0.1-1.8-1.1-7.2-0.9-8.2
			c0.1-1,2.5-3.6,5.7-5.8l0.2,2.4"/>
		<polyline class="st0" points="18,45.7 11.2,45.7 11.2,34 13.4,34 		"/>
		<polyline class="st0" points="26.1,34 32.2,34 32.2,45.7 24.5,45.7 		"/>
		<g>
			<path class="st1" d="M8.6,4.3c1.2,0,1.9,0.8,2.3,1.3c0.4-0.6,1.1-1.3,2.3-1.3c1.1,0,2.1,0.6,2.6,1.5c0.4,0.8,0.3,1.8-0.3,2.7
				c-1.6,2.3-4.4,4.1-4.4,4.1c0,0-0.1,0-0.2,0h0c-0.1,0-0.1,0-0.2,0c0,0-2.8-1.8-4.4-4.1C5.6,7.7,5.5,6.7,6,5.9
				C6.5,4.9,7.5,4.3,8.6,4.3"/>
			<polyline class="st0" points="7.7,18.1 -0.8,18.1 -0.8,-0.8 22.6,-0.8 22.6,18.1 17.4,18.1 17.4,23.1 11.2,18.1 			"/>
		</g>
	</g>
</g>
</svg>
