<?xml version="1.0" encoding="utf-8"?>
<!-- Generator: Adobe Illustrator 23.0.5, SVG Export Plug-In . SVG Version: 6.00 Build 0)  -->
<svg version="1.1" id="Layer_1" xmlns="http://www.w3.org/2000/svg" xmlns:xlink="http://www.w3.org/1999/xlink" x="0px" y="0px"
	 viewBox="0 0 104 86" style="enable-background:new 0 0 104 86;" xml:space="preserve">
<style type="text/css">
	.st0{fill:none;stroke:#5F53A3;stroke-width:2.6396;stroke-linecap:round;stroke-linejoin:round;stroke-miterlimit:10;}
	.st1{fill:none;stroke:#FFB71B;stroke-width:2.795;stroke-linecap:round;stroke-linejoin:round;stroke-miterlimit:10;}
	.st2{fill:none;stroke:#6051A2;stroke-width:2.471;stroke-linecap:round;stroke-linejoin:round;stroke-miterlimit:10;}
	.st3{fill:#FFFFFF;stroke:#6051A2;stroke-width:2.471;stroke-linecap:round;stroke-linejoin:round;stroke-miterlimit:10;}
	.st4{fill:#FBB017;}
	.st5{fill:none;stroke:#FBB017;stroke-width:2.6713;stroke-linecap:round;stroke-linejoin:round;stroke-miterlimit:10;}
	.st6{fill:none;stroke:#6051A2;stroke-width:2.571;stroke-linecap:round;stroke-linejoin:round;stroke-miterlimit:10;}
	.st7{fill:none;stroke:#F5AC1E;stroke-width:2.571;stroke-linecap:round;stroke-linejoin:round;stroke-miterlimit:10;}
</style>
<line class="st0" x1="51.1" y1="84.8" x2="102.6" y2="84.8"/>
<line class="st0" x1="1.4" y1="84.8" x2="44.2" y2="84.8"/>
<g>
	<g>
		<g>
			<path class="st6" d="M39.5,56.7l3.4,9.6c0,0.1,0.1,0.1,0.1,0.2l-0.1,13.4c0,0.2,0,0.5-0.1,0.7c-0.1,0.3-0.1,0.6-0.1,0.6
				c-0.1,0.2-0.3,2.9-3.1,3.3c-2.5,0.3-4.2-1.3-4.2-3.2c0-3.1,0.2-13.9,0.2-13.9l-4.3-8l-1.4,7.9c0,0,0,0,0,0l-3.7,13
				c-0.8,2.3-3.2,4.4-5.5,3.8c-0.4-0.1-1.4-0.7-1.6-1c-1.9-2.5-0.5-5.4,0.4-8.4c0.9-3,3.6-16.6,3.6-16.6"/>
		</g>
		<polyline class="st7" points="22,56.7 14.4,56.7 14.4,41.9 18.1,41.9 		"/>
		<polyline class="st7" points="26.3,41.9 40.1,41.9 40.1,56.7 27.6,56.7 		"/>
		<g>
			<path class="st6" d="M24.6,20c0.6,3.2,3.8,5.3,7.1,4.7c3.3-0.6,5.4-3.8,4.8-7.1c-0.1-0.3-0.1-0.5-0.2-0.7l-11.8,2.3
				C24.5,19.5,24.5,19.8,24.6,20z"/>
			<g>
				<polyline class="st7" points="24.5,19.3 24.5,19.3 36.2,16.9 39.5,16.3 				"/>
				<path class="st7" d="M24.5,19.3l11.7-2.3c-0.9-2.8-3.9-4.5-6.9-3.9C26.3,13.6,24.3,16.3,24.5,19.3z"/>
			</g>
		</g>
		<path class="st6" d="M28.6,37.9c0,0-1.1,0.9-3.6,5.1c-1.4,2.4,2.2,8.6,2.2,11.8S24,58,22.8,57.3s-4.5-14.1-4.5-15.4
			c0-1,4.5-7.8,6.1-10.2c0.4-0.6,1-1,1.6-1.2l4.4-0.8h4.9c0.2,0,0.3,0.1,0.5,0c1.2-0.5,5.8-3,6.8-4.5c1.7-2.6,3.3-6.8,4.2-8.9
			c0.5-1.4,1.8-2.2,3.2-2c3.2,0.5,2.9,3.5,1.9,7.9c-1,4.3-4.2,9-4.2,9l-9.6,6.3l-0.6,1.9"/>
		<g>
			<g>
				<path class="st6" d="M63.5,23.8l5,4.3c0.8,0.3,2.1,0.9,3.4,0.9l7.9,0.4c1.2,0.1,2.3,0.6,3.1,1.5c2.3,2.7,7,8.6,6.9,10.2
					c-0.2,2.1-4.5,13.5-4.5,13.5s-2.8,2.5-4.7,0c-1.7-2.2-0.4-5.7,1-8.3c1.4-2.6,0.2-3.7-1.1-6.1c-1.3-2.4-2.9-3.5-2.9-3.5"/>
				<path class="st6" d="M63.2,23.3c0,0-1.8-8-2.6-9c-1.3-1.7-5.3-0.5-5.1,1.9s1.4,11,2.7,12.3c1.2,1.3,9.1,7.1,9.5,7.6
					c0.5,0.5,0.6,14,0.6,14L62.6,66l0.1,13.8c0,0,0.2,1,0.2,1c0.1,0.2,0.7,3.5,3.5,3.7c3.2,0.1,4.6-1.8,4.6-3.7
					c0.1-3.5,0.4-14,0.4-14l3.6-10.6l1.1,10.9l3.7,13c0.8,2.3,3.2,4.4,5.5,3.8c0.4-0.1,1.4-0.7,1.6-1c1.9-2.5,0.5-5.4-0.4-8.4
					c-0.9-3-3.8-18.3-3.8-18.3"/>
			</g>
			<circle class="st6" cx="75.5" cy="18.8" r="6.7"/>
		</g>
		<line class="st7" x1="53" y1="1.3" x2="53.6" y2="9.6"/>
		<line class="st7" x1="44.1" y1="3.3" x2="49.6" y2="9.6"/>
		<line class="st7" x1="62.2" y1="2.8" x2="57.3" y2="9.6"/>
	</g>
</g>
</svg>
