<svg xmlns="http://www.w3.org/2000/svg" width="20" height="10" viewBox="0 0 20 10">
    <g fill="none" fill-rule="evenodd">
        <g fill="#5E50A1">
            <g>
                <path d="M14.803 13.678l1.424 1.484c.305.32.077.836-.366.836H.834C.277 15.998 0 16.448 0 17v-.008c0 .553.277 1.009.834 1.009h15.012c.445 0 .672.54.363.857l-1.416 1.46c-.383.398-.366 1.034.04 1.41l.002.005c.402.372 1.031.353 1.41-.043l3.204-3.343c.738-.775.734-1.986-.007-2.757l-3.176-3.283c-.377-.392-1.002-.411-1.402-.042l-.01.01c-.406.374-.428 1.003-.05 1.403" transform="translate(-230 -162) translate(230 150) matrix(-1 0 0 1 20 0)"/>
            </g>
        </g>
    </g>
</svg>
