<svg xmlns="http://www.w3.org/2000/svg" width="164" height="52" viewBox="0 0 164 52">
    <g fill="none" fill-rule="evenodd">
        <g>
            <g>
                <path fill="#FFB003" d="M36.63 11.39c-.03-.031-.054-.071-.087-.105l-8.506-8.508c-.512-.513-1.341-.513-1.851 0-.516.513-.516 1.344 0 1.851l3.624 3.634v2.314h-2.622v2.621h6.403c1.929 0 3.501 1.568 3.501 3.504v16.558c0 .575-.142 1.11-.39 1.592L14.398 12.543c-.512-.512-1.34-.512-1.853 0-.514.511-.514 1.34 0 1.852l22.178 22.178c-.357.121-.737.19-1.131.19H17.032c-1.931 0-3.506-1.574-3.506-3.504v-6.07h-2.62v6.491c0 .12.021.238.054.356.038.288.095.574.176.851l.101 1.248 1.016.956c.005.005.013.01.02.018 1.125 1.387 2.838 2.275 4.76 2.275H33.59c1.56 0 2.982-.593 4.065-1.561.031-.027.066-.048.094-.077l.024-.033c1.192-1.117 1.942-2.699 1.942-4.454V16.701c0-2.27-1.25-4.25-3.087-5.31" transform="translate(-129 -24) translate(129 24)"/>
                <path fill="#FF434F" d="M27.188 10.576H17.032c-1.302 0-2.505.41-3.497 1.105l-7.779-7.78c.424-.178.886-.28 1.372-.28h16.557c1.932 0 3.503 1.573 3.503 3.504v3.451zm0 13.107c0 1.932-1.571 3.505-3.503 3.505H13.526V16.701c0-.88.332-1.685.866-2.303l.006-.003c0-.002.003-.002.003-.008.646-.728 1.58-1.19 2.631-1.19h10.156v10.486zm-16.283-6.982v10.487H7.128c-1.932 0-3.501-1.573-3.501-3.505V7.125c0-.484.098-.95.277-1.37l7.848 7.85c-.534.906-.847 1.964-.847 3.096zM23.685 1H7.128c-1.575 0-3.004.603-4.092 1.585-.089.052-.178.113-.259.193-.077.08-.14.165-.194.259C1.606 4.123 1 5.555 1 7.125v16.558c0 1.576.606 3.007 1.583 4.094.064.103.128.195.219.28l8.545 8.19v-.013c.233.206.534.333.87.333.722 0 1.31-.582 1.31-1.307v-5.45h10.158c3.377 0 6.125-2.75 6.125-6.127V7.125C29.81 3.748 27.062 1 23.685 1z" transform="translate(-129 -24) translate(129 24)"/>
                <path fill="#FFF" d="M55.659 46.34c.874 0 1.419-.489 1.419-1.175v-.019c0-.77-.555-1.174-1.419-1.174h-1.344v2.368h1.344zm-2.5-3.42h2.594c1.54 0 2.5.873 2.5 2.198v.02c0 1.474-1.185 2.245-2.632 2.245h-1.306v2.114H53.16V42.92zM62.283 47.712v-.339c-.291-.113-.676-.197-1.127-.197-.733 0-1.166.31-1.166.827v.019c0 .479.423.751.968.751.752 0 1.325-.432 1.325-1.061m-3.401.356v-.018c0-1.071.836-1.598 2.048-1.598.554 0 .95.085 1.334.207v-.122c0-.705-.432-1.08-1.23-1.08-.555 0-.968.122-1.42.31l-.3-.893c.545-.244 1.08-.404 1.87-.404.742 0 1.296.197 1.644.554.366.357.535.883.535 1.532v2.94h-1.108v-.62c-.338.405-.855.724-1.616.724-.93 0-1.757-.536-1.757-1.532M64.726 42.638L65.863 42.638 65.863 46.734 67.921 44.536 69.302 44.536 67.329 46.556 69.367 49.497 68.033 49.497 66.568 47.345 65.863 48.078 65.863 49.497 64.726 49.497zM73.37 46.669c-.075-.733-.507-1.306-1.26-1.306-.694 0-1.183.535-1.286 1.306h2.546zm-3.674.366v-.019c0-1.419 1.006-2.584 2.424-2.584 1.579 0 2.377 1.24 2.377 2.669 0 .103-.009.206-.018.32h-3.646c.122.807.695 1.258 1.428 1.258.555 0 .95-.206 1.344-.592l.667.592c-.47.564-1.118.93-2.03.93-1.437 0-2.546-1.042-2.546-2.574zM75.879 48.125v-2.612h-.63v-.977h.63v-1.363h1.137v1.363h1.334v.977h-1.334v2.433c0 .442.225.62.61.62.254 0 .48-.056.705-.169v.93c-.282.16-.592.254-1.024.254-.837 0-1.428-.366-1.428-1.456M79.505 44.536h1.137v.751c.32-.441.752-.855 1.513-.855.714 0 1.221.348 1.485.874.394-.526.92-.874 1.672-.874 1.08 0 1.738.686 1.738 1.898v3.167h-1.137v-2.819c0-.79-.366-1.212-1.005-1.212-.62 0-1.062.432-1.062 1.23v2.8H82.71V46.67c0-.77-.376-1.203-1.005-1.203-.63 0-1.062.47-1.062 1.23v2.8h-1.137v-4.96zM88.375 47.693v-3.157h1.137v2.819c0 .77.385 1.202 1.062 1.202.658 0 1.118-.45 1.118-1.221v-2.8h1.146v4.96h-1.146v-.77c-.32.47-.78.874-1.55.874-1.119 0-1.767-.752-1.767-1.907M96.766 48.538l.695-.826c.63.545 1.268.855 2.076.855.714 0 1.165-.339 1.165-.827v-.019c0-.47-.263-.724-1.484-1.006-1.4-.338-2.19-.751-2.19-1.963v-.019c0-1.127.94-1.907 2.246-1.907.958 0 1.72.291 2.387.826l-.62.874c-.592-.441-1.184-.676-1.786-.676-.676 0-1.07.348-1.07.78v.019c0 .507.3.732 1.568 1.033 1.39.338 2.105.836 2.105 1.926v.019c0 1.23-.968 1.964-2.349 1.964-1.005 0-1.954-.348-2.743-1.053M106.49 46.669c-.075-.733-.507-1.306-1.259-1.306-.695 0-1.184.535-1.287 1.306h2.546zm-3.674.366v-.019c0-1.419 1.006-2.584 2.425-2.584 1.578 0 2.377 1.24 2.377 2.669 0 .103-.01.206-.019.32h-3.646c.122.807.696 1.258 1.428 1.258.555 0 .95-.206 1.344-.592l.667.592c-.47.564-1.118.93-2.03.93-1.437 0-2.546-1.042-2.546-2.574zM108.764 42.638h1.137v2.659c.32-.46.78-.865 1.55-.865 1.118 0 1.766.752 1.766 1.898v3.167h-1.136v-2.819c0-.77-.386-1.212-1.062-1.212-.658 0-1.118.46-1.118 1.23v2.8h-1.137v-6.858zM117.662 47.712v-.339c-.292-.113-.677-.197-1.128-.197-.733 0-1.165.31-1.165.827v.019c0 .479.423.751.968.751.752 0 1.325-.432 1.325-1.061m-3.401.356v-.018c0-1.071.836-1.598 2.048-1.598.554 0 .949.085 1.334.207v-.122c0-.705-.432-1.08-1.23-1.08-.555 0-.969.122-1.42.31l-.3-.893c.545-.244 1.08-.404 1.87-.404.742 0 1.296.197 1.644.554.366.357.535.883.535 1.532v2.94h-1.108v-.62c-.339.405-.855.724-1.616.724-.93 0-1.757-.536-1.757-1.532M120.105 44.536h1.137v1.118c.31-.742.883-1.25 1.757-1.212v1.202h-.066c-.996 0-1.691.649-1.691 1.964v1.889h-1.137v-4.961zM124.05 49.497h1.138v-4.961h-1.137v4.96zm-.046-5.722h1.221v-1.08h-1.221v1.08zM129.18 48.538l.696-.826c.63.545 1.268.855 2.076.855.715 0 1.166-.339 1.166-.827v-.019c0-.47-.263-.724-1.485-1.006-1.4-.338-2.19-.751-2.19-1.963v-.019c0-1.127.94-1.907 2.246-1.907.959 0 1.72.291 2.387.826l-.62.874c-.592-.441-1.184-.676-1.785-.676-.677 0-1.071.348-1.071.78v.019c0 .507.3.732 1.569 1.033 1.39.338 2.104.836 2.104 1.926v.019c0 1.23-.967 1.964-2.349 1.964-1.005 0-1.954-.348-2.743-1.053M138.577 47.712v-.339c-.292-.113-.677-.197-1.128-.197-.733 0-1.165.31-1.165.827v.019c0 .479.423.751.968.751.751 0 1.325-.432 1.325-1.061m-3.402.356v-.018c0-1.071.837-1.598 2.049-1.598.554 0 .949.085 1.334.207v-.122c0-.705-.432-1.08-1.231-1.08-.554 0-.968.122-1.419.31l-.3-.893c.545-.244 1.08-.404 1.87-.404.742 0 1.296.197 1.644.554.366.357.535.883.535 1.532v2.94h-1.109v-.62c-.338.405-.855.724-1.615.724-.93 0-1.758-.536-1.758-1.532M141.02 44.536h1.137v.751c.319-.441.751-.855 1.512-.855.714 0 1.222.348 1.485.874.394-.526.92-.874 1.672-.874 1.08 0 1.739.686 1.739 1.898v3.167h-1.137v-2.819c0-.79-.367-1.212-1.006-1.212-.62 0-1.062.432-1.062 1.23v2.8h-1.136V46.67c0-.77-.376-1.203-1.006-1.203s-1.061.47-1.061 1.23v2.8h-1.137v-4.96zM153.92 47.026v-.02c0-.957-.648-1.587-1.419-1.587-.77 0-1.447.639-1.447 1.588v.019c0 .949.677 1.588 1.447 1.588.78 0 1.419-.611 1.419-1.588zm-3.974-2.49h1.137v.826c.366-.516.883-.93 1.69-.93 1.166 0 2.303.921 2.303 2.575v.019c0 1.644-1.128 2.574-2.302 2.574-.827 0-1.344-.413-1.691-.874V51h-1.137v-6.464zM159.323 47.712v-.339c-.292-.113-.677-.197-1.128-.197-.733 0-1.165.31-1.165.827v.019c0 .479.423.751.968.751.751 0 1.325-.432 1.325-1.061m-3.402.356v-.018c0-1.071.837-1.598 2.049-1.598.554 0 .949.085 1.334.207v-.122c0-.705-.432-1.08-1.231-1.08-.554 0-.968.122-1.419.31l-.3-.893c.545-.244 1.08-.404 1.87-.404.742 0 1.296.197 1.644.554.366.357.535.883.535 1.532v2.94h-1.109v-.62c-.338.405-.855.724-1.616.724-.93 0-1.757-.536-1.757-1.532M161.831 49.497h1.137v-4.961h-1.137v4.96zm-.047-5.722h1.222v-1.08h-1.222v1.08zM63.159 17.47c0-2.044-1.206-3.25-3.288-3.25-1.106 0-2.177.136-3.253.402v9.73c.94.769 2.05 1.172 3.253 1.172 2.082 0 3.288-1.172 3.288-3.254v-4.8zm-9.996-3.52c0-.939.603-1.777 1.478-2.046 1.676-.537 3.42-.87 5.23-.87 1.978 0 3.657.637 4.867 1.88 1.205 1.206 1.875 2.88 1.875 4.827v4.225c0 1.98-.635 3.726-1.843 4.932-1.208 1.241-2.682 1.814-4.662 1.814-1.106 0-2.45-.403-3.49-.872v6.275c0 .974-.77 1.743-1.707 1.743-.977 0-1.748-.77-1.748-1.743V13.951zM79.498 21.095h-3.454c-2.922 0-3.087 1.576-3.087 2.15 0 .602.165 2.279 3.087 2.279 1.14 0 2.378-.168 3.454-.438v-3.99zm3.455 4.699c0 .936-.606 1.741-1.477 2.046-1.644.57-3.554.872-5.432.872-2.047 0-3.66-.5-4.8-1.477-1.138-.974-1.742-2.346-1.742-3.99 0-1.646.604-2.918 1.743-3.859 1.14-.97 2.752-1.476 4.8-1.476h3.453v-1.174c0-1.41-1.041-2.515-2.785-2.515-1.577 0-2.449.198-3.624.904-.265.169-.636.301-.94.301-.904 0-1.642-.671-1.642-1.505 0-.605.27-1.21.84-1.546 1.812-1.04 3.385-1.341 5.801-1.341 3.757 0 5.805 2.717 5.805 5.702v9.058zM92.412 22.738l-3.558 5.234c-.333.471-.869.74-1.405.74-.904 0-1.743-.771-1.743-1.744 0-.335.097-.671.3-.974l4.393-6.205-4.295-6.037c-.198-.304-.301-.636-.301-.975 0-.905.773-1.743 1.745-1.743.537 0 1.077.27 1.408.737l3.456 5.068 3.455-5.068c.337-.503.907-.737 1.444-.737.938 0 1.71.772 1.71 1.743 0 .339-.101.67-.303.975l-4.294 6.037 4.396 6.205c.234.303.335.639.335.974 0 .936-.805 1.745-1.777 1.745-.537 0-1.074-.234-1.408-.74l-3.558-5.235zM111.431 18.311c0-2.781-1.14-4.09-3.285-4.09-2.115 0-3.252 1.272-3.252 4.09h6.537zm-6.537 3.19c0 1.375.23 2.28.669 2.882.569.738 1.44 1.14 2.583 1.14 1.274 0 2.483-.37 3.622-.87.234-.1.467-.17.704-.17.838 0 1.643.707 1.643 1.58 0 .632-.268 1.203-.874 1.507-1.607.773-3.315 1.142-5.095 1.142-1.95 0-3.623-.636-4.868-1.879-1.205-1.212-1.844-2.886-1.844-4.867V17.74c0-1.946.639-3.62 1.844-4.827 1.245-1.242 2.918-1.88 4.868-1.88 1.976 0 3.657.638 4.863 1.88 1.206 1.206 1.877 2.88 1.877 4.827v1.58c0 1.208-.972 2.18-2.178 2.18h-7.814zM118.679 6.267c0-.972.772-1.743 1.745-1.743.938 0 1.71.77 1.71 1.743v20.7c0 .973-.772 1.745-1.71 1.745-.973 0-1.745-.772-1.745-1.745v-20.7z" transform="translate(-129 -24) translate(129 24)"/>
            </g>
        </g>
    </g>
</svg>
