<svg xmlns="http://www.w3.org/2000/svg" width="131" height="40" viewBox="0 0 131 40">
    <g fill="none" fill-rule="evenodd">
        <g fill="#FFF">
            <g>
                <g>
                    <path d="M28.58 8.312c-.023-.025-.042-.057-.069-.084l-6.805-6.806c-.41-.41-1.073-.41-1.48 0-.413.41-.413 1.075 0 1.48l2.899 2.908v1.85h-2.097v2.098h5.122c1.543 0 2.8 1.254 2.8 2.803v13.246c0 .46-.113.888-.31 1.274L10.794 9.234c-.41-.41-1.073-.41-1.483 0-.411.41-.411 1.073 0 1.482l17.742 17.742c-.285.097-.59.152-.904.152H12.903c-1.545 0-2.805-1.258-2.805-2.803v-4.856H8v5.193c0 .096.018.19.044.285.03.23.076.459.14.68l.082.999.813.765c.003.004.01.008.014.014.901 1.11 2.272 1.82 3.809 1.82H26.15c1.247 0 2.385-.474 3.252-1.249.025-.02.053-.038.075-.061.006-.006.012-.016.02-.027.952-.893 1.553-2.159 1.553-3.563V12.561c0-1.816-1-3.4-2.47-4.249" transform="translate(-129 -964) translate(0 739) translate(129.923 225)"/>
                    <path d="M21.028 7.661h-8.125c-1.042 0-2.005.328-2.798.884L3.882 2.32c.34-.141.709-.223 1.097-.223h13.246c1.545 0 2.803 1.258 2.803 2.803V7.66zm0 10.486c0 1.545-1.258 2.804-2.803 2.804h-8.127v-8.39c0-.704.265-1.348.693-1.843l.004-.002c0-.002.003-.002.003-.007.516-.582 1.264-.951 2.105-.951h8.125v8.389zM8 12.56v8.39H4.979c-1.546 0-2.8-1.258-2.8-2.803V4.9c0-.387.078-.76.221-1.097l6.279 6.281C8.25 10.81 8 11.655 8 12.56zM18.225 0H4.979C3.72 0 2.576.482 1.706 1.268c-.071.041-.143.09-.207.154-.062.065-.113.133-.155.208C.562 2.498.077 3.644.077 4.9v13.247c0 1.26.485 2.405 1.267 3.274.05.083.101.157.174.224l6.837 6.553v-.01c.186.164.427.266.695.266.578 0 1.048-.466 1.048-1.046v-4.36h8.127c2.702 0 4.9-2.2 4.9-4.901V4.9c0-2.702-2.198-4.9-4.9-4.9zM43.804 36.272c.7 0 1.135-.391 1.135-.94v-.015c0-.616-.443-.94-1.135-.94h-1.075v1.895h1.075zm-2-2.736h2.075c1.233 0 2 .699 2 1.759v.015c0 1.18-.948 1.796-2.105 1.796h-1.045v1.691h-.924v-5.261zM49.103 37.37v-.271c-.233-.09-.541-.158-.902-.158-.586 0-.932.248-.932.661v.015c0 .384.338.602.774.602.602 0 1.06-.346 1.06-.85m-2.72.286v-.015c0-.857.668-1.278 1.638-1.278.443 0 .759.068 1.067.165v-.097c0-.564-.345-.865-.984-.865-.444 0-.775.098-1.135.248l-.241-.714c.436-.195.864-.323 1.496-.323.594 0 1.037.158 1.315.443.293.286.429.707.429 1.226v2.352h-.887v-.496c-.27.324-.684.579-1.293.579-.744 0-1.406-.428-1.406-1.225M51.058 33.31L51.967 33.31 51.967 36.587 53.613 34.829 54.718 34.829 53.14 36.445 54.771 38.797 53.704 38.797 52.531 37.076 51.967 37.662 51.967 38.797 51.058 38.797zM57.973 36.535c-.06-.586-.406-1.045-1.007-1.045-.557 0-.948.428-1.03 1.045h2.037zm-2.94.293v-.015c0-1.135.805-2.067 1.94-2.067 1.263 0 1.902.992 1.902 2.135 0 .082-.008.165-.015.255h-2.917c.098.647.557 1.007 1.143 1.007.443 0 .76-.165 1.075-.473l.533.473c-.375.451-.894.745-1.623.745-1.15 0-2.037-.835-2.037-2.06zM59.98 37.7v-2.09h-.504v-.781h.504v-1.09h.91v1.09h1.067v.781h-1.068v1.947c0 .353.18.496.489.496.203 0 .383-.045.563-.135v.744c-.225.128-.473.203-.819.203-.669 0-1.142-.293-1.142-1.165M62.881 34.829h.91v.6c.255-.352.6-.683 1.21-.683.571 0 .977.278 1.187.699.316-.421.737-.7 1.339-.7.864 0 1.39.55 1.39 1.52v2.532h-.91v-2.255c0-.631-.293-.97-.804-.97-.496 0-.85.346-.85.985v2.24h-.909v-2.262c0-.617-.3-.962-.804-.962s-.85.376-.85.984v2.24h-.909V34.83zM69.977 37.354V34.83h.91v2.255c0 .616.308.962.849.962.526 0 .894-.361.894-.977v-2.24h.917v3.968h-.917v-.616c-.255.376-.624.699-1.24.699-.894 0-1.413-.601-1.413-1.526M76.69 38.03l.555-.66c.504.435 1.015.683 1.662.683.57 0 .932-.27.932-.661v-.015c0-.376-.21-.579-1.188-.805-1.12-.27-1.751-.6-1.751-1.57v-.016c0-.902.751-1.526 1.796-1.526.767 0 1.376.234 1.91.662l-.497.699c-.473-.353-.947-.541-1.428-.541-.541 0-.857.278-.857.624v.015c0 .406.24.586 1.256.827 1.112.27 1.683.669 1.683 1.54v.016c0 .984-.774 1.57-1.879 1.57-.804 0-1.563-.278-2.195-.841M84.469 36.535c-.06-.586-.406-1.045-1.007-1.045-.556 0-.947.428-1.03 1.045h2.037zm-2.94.293v-.015c0-1.135.805-2.067 1.94-2.067 1.263 0 1.902.992 1.902 2.135 0 .082-.008.165-.015.255h-2.917c.098.647.557 1.007 1.143 1.007.443 0 .76-.165 1.075-.473l.534.473c-.376.451-.895.745-1.624.745-1.15 0-2.037-.835-2.037-2.06zM86.288 33.31h.91v2.127c.255-.368.623-.691 1.24-.691.894 0 1.413.601 1.413 1.518v2.533h-.91v-2.255c0-.616-.308-.97-.849-.97-.526 0-.895.369-.895.985v2.24h-.909V33.31zM93.406 37.37v-.271c-.233-.09-.541-.158-.902-.158-.586 0-.932.248-.932.661v.015c0 .384.338.602.774.602.602 0 1.06-.346 1.06-.85m-2.72.286v-.015c0-.857.668-1.278 1.638-1.278.443 0 .759.068 1.067.165v-.097c0-.564-.346-.865-.985-.865-.443 0-.774.098-1.135.248l-.24-.714c.436-.195.864-.323 1.496-.323.593 0 1.037.158 1.315.443.293.286.429.707.429 1.226v2.352h-.887v-.496c-.27.324-.684.579-1.293.579-.744 0-1.406-.428-1.406-1.225M95.36 34.829h.91v.894c.248-.594.707-1 1.406-.97v.963h-.053c-.797 0-1.353.518-1.353 1.57v1.511h-.91V34.83zM98.518 38.797h.93V34.83h-.93v3.968zm-.038-4.577h1v-.865h-1v.865zM102.621 38.03l.557-.66c.503.435 1.014.683 1.66.683.572 0 .933-.27.933-.661v-.015c0-.376-.21-.579-1.188-.805-1.12-.27-1.751-.6-1.751-1.57v-.016c0-.902.752-1.526 1.796-1.526.767 0 1.376.234 1.91.662l-.497.699c-.473-.353-.947-.541-1.428-.541-.54 0-.856.278-.856.624v.015c0 .406.24.586 1.255.827 1.112.27 1.684.669 1.684 1.54v.016c0 .984-.775 1.57-1.88 1.57-.804 0-1.563-.278-2.195-.841M110.138 37.37v-.271c-.233-.09-.541-.158-.902-.158-.586 0-.932.248-.932.661v.015c0 .384.338.602.774.602.602 0 1.06-.346 1.06-.85m-2.721.286v-.015c0-.857.67-1.278 1.639-1.278.443 0 .759.068 1.067.165v-.097c0-.564-.346-.865-.985-.865-.443 0-.774.098-1.135.248l-.24-.714c.436-.195.864-.323 1.496-.323.594 0 1.037.158 1.315.443.293.286.429.707.429 1.226v2.352h-.887v-.496c-.271.324-.684.579-1.293.579-.744 0-1.406-.428-1.406-1.225M112.093 34.829h.909v.6c.256-.352.601-.683 1.21-.683.571 0 .977.278 1.188.699.315-.421.736-.7 1.338-.7.864 0 1.39.55 1.39 1.52v2.532h-.91v-2.255c0-.631-.292-.97-.804-.97-.496 0-.849.346-.849.985v2.24h-.91v-2.262c0-.617-.3-.962-.804-.962-.503 0-.849.376-.849.984v2.24h-.91V34.83zM122.413 36.82v-.015c0-.766-.519-1.27-1.135-1.27-.617 0-1.158.511-1.158 1.27v.016c0 .759.541 1.27 1.158 1.27.624 0 1.135-.489 1.135-1.27zm-3.18-1.991h.91v.66c.293-.412.706-.743 1.353-.743.932 0 1.841.736 1.841 2.06v.015c0 1.315-.902 2.059-1.841 2.059-.662 0-1.075-.33-1.353-.7V40h-.91v-5.171zM126.735 37.37v-.271c-.233-.09-.541-.158-.902-.158-.586 0-.932.248-.932.661v.015c0 .384.338.602.774.602.601 0 1.06-.346 1.06-.85m-2.721.286v-.015c0-.857.669-1.278 1.638-1.278.444 0 .76.068 1.068.165v-.097c0-.564-.346-.865-.985-.865-.443 0-.774.098-1.135.248l-.24-.714c.436-.195.864-.323 1.495-.323.594 0 1.038.158 1.316.443.293.286.428.707.428 1.226v2.352h-.887v-.496c-.27.324-.684.579-1.293.579-.744 0-1.405-.428-1.405-1.225M128.743 38.797h.93V34.83h-.93v3.968zm-.039-4.577h1v-.865h-1v.865zM49.804 13.177c0-1.636-.965-2.6-2.63-2.6-.885 0-1.742.108-2.603.32v7.785c.752.615 1.64.937 2.603.937 1.665 0 2.63-.937 2.63-2.603v-3.84zm-7.997-2.816c0-.752.483-1.423 1.182-1.638 1.341-.43 2.737-.696 4.185-.696 1.582 0 2.925.51 3.893 1.504.965.965 1.5 2.304 1.5 3.861v3.38c0 1.585-.508 2.982-1.474 3.947-.967.993-2.145 1.451-3.73 1.451-.884 0-1.959-.323-2.792-.698v5.02c0 .78-.616 1.395-1.366 1.395-.78 0-1.398-.616-1.398-1.395V10.361zM62.876 16.076h-2.764c-2.338 0-2.47 1.261-2.47 1.72 0 .481.132 1.823 2.47 1.823.912 0 1.903-.134 2.764-.35v-3.193zm2.763 3.76c0 .748-.485 1.392-1.182 1.636-1.314.455-2.843.698-4.345.698-1.637 0-2.928-.401-3.84-1.183-.91-.779-1.394-1.876-1.394-3.191 0-1.317.484-2.334 1.395-3.087.911-.776 2.202-1.181 3.84-1.181h2.763v-.94c0-1.128-.834-2.011-2.229-2.011-1.261 0-1.959.158-2.899.723-.212.135-.51.24-.752.24-.723 0-1.313-.536-1.313-1.203 0-.484.215-.968.67-1.237 1.451-.832 2.71-1.073 4.642-1.073 3.006 0 4.644 2.174 4.644 4.562v7.246zM73.206 17.39l-2.846 4.188c-.267.376-.695.592-1.124.592-.723 0-1.395-.617-1.395-1.396 0-.268.078-.537.24-.779l3.515-4.964-3.436-4.83c-.159-.243-.24-.509-.24-.78 0-.723.617-1.394 1.395-1.394.43 0 .862.216 1.127.59l2.764 4.054 2.765-4.054c.27-.403.725-.59 1.155-.59.75 0 1.367.618 1.367 1.394 0 .271-.08.537-.241.78l-3.436 4.83 3.517 4.964c.187.242.268.511.268.78 0 .748-.644 1.395-1.422 1.395-.43 0-.859-.186-1.126-.592l-2.847-4.187zM88.422 13.849c0-2.225-.913-3.272-2.629-3.272-1.692 0-2.601 1.017-2.601 3.272h5.23zm-5.23 2.552c0 1.1.183 1.823.535 2.305.455.59 1.153.913 2.066.913 1.02 0 1.987-.297 2.899-.696.186-.08.373-.136.563-.136.67 0 1.314.565 1.314 1.264 0 .505-.214.962-.7 1.205-1.285.619-2.651.914-4.076.914-1.56 0-2.898-.51-3.894-1.503-.964-.97-1.475-2.31-1.475-3.894v-3.38c0-1.558.511-2.898 1.475-3.862.996-.994 2.335-1.504 3.894-1.504 1.582 0 2.927.51 3.89 1.504.966.964 1.503 2.304 1.503 3.861v1.264c0 .966-.778 1.745-1.743 1.745h-6.251zM94.22 4.213c0-.777.617-1.393 1.396-1.393.75 0 1.368.616 1.368 1.393v16.56c0 .78-.618 1.397-1.368 1.397-.779 0-1.396-.618-1.396-1.396V4.214z" transform="translate(-129 -964) translate(0 739) translate(129.923 225)"/>
                </g>
            </g>
        </g>
    </g>
</svg>
